<?xml version="1.0" encoding="UTF-8"?>
<svg xmlns="http://www.w3.org/2000/svg" width="147" height="40" viewBox="0 0 147 40" fill="none">
  <path d="M57.9665 33.324V13.776H62.9705V33.324H57.9665ZM55.2305 17.52V13.776H62.9705V17.52H55.2305ZM59.8025 11.436C58.8185 11.436 58.0865 11.184 57.6065 10.68C57.1505 10.152 56.9225 9.504 56.9225 8.736C56.9225 7.92 57.1505 7.26 57.6065 6.756C58.0865 6.252 58.8185 6 59.8025 6C60.7865 6 61.5065 6.252 61.9625 6.756C62.4185 7.26 62.6465 7.92 62.6465 8.736C62.6465 9.504 62.4185 10.152 61.9625 10.68C61.5065 11.184 60.7865 11.436 59.8025 11.436Z" fill="black"></path>
  <path d="M67.6575 33.324V13.776H71.6175V22.164H71.2575C71.2575 20.172 71.5215 18.516 72.0495 17.196C72.5775 15.852 73.3575 14.844 74.3895 14.172C75.4455 13.5 76.7535 13.164 78.3135 13.164H78.5295C80.8575 13.164 82.6215 13.92 83.8215 15.432C85.0215 16.92 85.6215 19.152 85.6215 22.128V33.324H80.6175V21.696C80.6175 20.496 80.2695 19.524 79.5735 18.78C78.9015 18.036 77.9655 17.664 76.7655 17.664C75.5415 17.664 74.5455 18.048 73.7775 18.816C73.0335 19.56 72.6615 20.568 72.6615 21.84V33.324H67.6575Z" fill="black"></path>
  <path d="M97.0133 33.936C94.3253 33.936 92.2132 33.372 90.6772 32.244C89.1652 31.092 88.3732 29.508 88.3013 27.492H92.8013C92.8732 28.164 93.2453 28.776 93.9173 29.328C94.5893 29.88 95.6453 30.156 97.0853 30.156C98.2853 30.156 99.2333 29.94 99.9293 29.508C100.649 29.076 101.009 28.488 101.009 27.744C101.009 27.096 100.733 26.58 100.181 26.196C99.6533 25.812 98.7413 25.56 97.4453 25.44L95.7173 25.26C93.5332 25.02 91.8532 24.396 90.6772 23.388C89.5013 22.38 88.9132 21.036 88.9132 19.356C88.9132 18.012 89.2492 16.884 89.9212 15.972C90.5933 15.06 91.5173 14.376 92.6932 13.92C93.8932 13.44 95.2612 13.2 96.7972 13.2C99.1973 13.2 101.141 13.728 102.629 14.784C104.117 15.84 104.897 17.388 104.969 19.428H100.469C100.421 18.756 100.085 18.18 99.4613 17.7C98.8372 17.22 97.9372 16.98 96.7612 16.98C95.7052 16.98 94.8893 17.184 94.3133 17.592C93.7373 18 93.4492 18.528 93.4492 19.176C93.4492 19.8 93.6772 20.28 94.1333 20.616C94.6133 20.952 95.3813 21.18 96.4373 21.3L98.1653 21.48C100.469 21.72 102.269 22.356 103.565 23.388C104.885 24.42 105.545 25.812 105.545 27.564C105.545 28.86 105.185 29.988 104.465 30.948C103.769 31.884 102.785 32.616 101.513 33.144C100.241 33.672 98.7413 33.936 97.0133 33.936Z" fill="black"></path>
  <path d="M115.259 33.936C113.003 33.936 111.251 33.192 110.003 31.704C108.779 30.216 108.167 28.008 108.167 25.08V13.74H113.171V25.512C113.171 26.712 113.507 27.672 114.179 28.392C114.851 29.088 115.763 29.436 116.915 29.436C118.067 29.436 119.003 29.064 119.723 28.32C120.467 27.576 120.839 26.568 120.839 25.296V13.74H125.843V33.324H121.883V25.008H122.279C122.279 26.976 122.027 28.62 121.523 29.94C121.019 31.26 120.263 32.256 119.255 32.928C118.247 33.6 116.987 33.936 115.475 33.936H115.259Z" fill="black"></path>
  <path d="M130.763 33.324V7.044H135.767V33.324H130.763ZM128.315 10.788V7.044H135.767V10.788H128.315Z" fill="black"></path>
  <circle cx="143.187" cy="31" r="3" fill="#1351D8"></circle>
  <g clip-path="url(#clip0_232_117)">
    <path d="M21.5789 4.89187V16.2985L34.7892 8.71808C34.6666 8.63167 34.5439 8.55006 34.4115 8.47324L20.3918 0.556777C19.0772 -0.187342 17.4584 -0.187342 16.1437 0.556777L2.12405 8.47804C0.809394 9.22216 0 10.5952 0 12.0786V16.8506L21.5789 4.89187Z" fill="#1351D8"></path>
    <path d="M12.7492 31.3826V19.7168L0 26.7835V27.9213C0 29.4047 0.809394 30.7777 2.12405 31.5219L16.1437 39.4431C17.4584 40.1873 19.0772 40.1873 20.3918 39.4431L34.4115 31.5219C35.7262 30.7777 36.5356 29.4047 36.5356 27.9213V17.7389L12.7492 31.3826Z" fill="#1351D8"></path>
    <path d="M49.2308 7.57082C49.2308 9.84159 47.352 11.6803 45.0317 11.6803C44.3008 11.6803 43.619 11.5027 43.0205 11.181L15.2019 27.1916V15.5977L0 24.0231V19.6111L19.1262 9.01105V20.4897L40.8572 7.97409C40.8425 7.84447 40.8327 7.70524 40.8327 7.57082C40.8327 5.30006 42.7164 3.46136 45.0366 3.46136C47.3569 3.46136 49.2308 5.30006 49.2308 7.57082Z" fill="#1351D8"></path>
  </g>
  <defs>
    <clipPath id="clip0_232_117">
      <rect width="49.2308" height="40" fill="white"></rect>
    </clipPath>
  </defs>
</svg>
